<svg width="900" height="260" viewBox="0 0 900 260" xmlns="http://www.w3.org/2000/svg">
  <defs>
    <linearGradient id="termbg" x1="0" y1="0" x2="0" y2="1">
      <stop offset="0" stop-color="#0b1020"/>
      <stop offset="1" stop-color="#070b14"/>
    </linearGradient>
    <filter id="softGlow">
      <feDropShadow dx="0" dy="0" stdDeviation="3" flood-color="#22c55e" flood-opacity="0.35"/>
    </filter>
  </defs>

  <rect width="900" height="260" fill="#05070b"/>
  <rect x="28" y="24" width="844" height="212" rx="14" fill="url(#termbg)" stroke="#263244" stroke-width="3"/>
  <rect x="28" y="24" width="844" height="30" rx="14" fill="#111827"/>
  <rect x="28" y="40" width="844" height="14" fill="#111827"/>
  <circle cx="52" cy="39" r="6" fill="#ef4444"/>
  <circle cx="72" cy="39" r="6" fill="#f59e0b"/>
  <circle cx="92" cy="39" r="6" fill="#22c55e"/>

  <text x="116" y="44" fill="#94a3b8" font-size="14" font-family="monospace">nidrajud@github-profile: ~/unclaw/readme</text>

  <!-- subtle grid -->
  <g stroke="#0f172a" stroke-width="1">
    <path d="M50 68 H850 M50 98 H850 M50 128 H850 M50 158 H850 M50 188 H850"/>
    <path d="M100 60 V228 M180 60 V228 M260 60 V228 M340 60 V228 M420 60 V228 M500 60 V228 M580 60 V228 M660 60 V228 M740 60 V228"/>
  </g>

  <!-- left prompt -->
  <text x="56" y="82" fill="#22c55e" font-size="15" font-family="monospace">$ ./summon_shrimp.sh --mode chaos --target bug</text>
  <text x="56" y="102" fill="#86efac" font-size="14" font-family="monospace">loading shrimp kernel................................ [ok]</text>
  <text x="56" y="122" fill="#86efac" font-size="14" font-family="monospace">allocating tiny antennae............................. [ok]</text>
  <text x="56" y="142" fill="#86efac" font-size="14" font-family="monospace">arming sarcasm module................................ [ok]</text>
  <text x="56" y="162" fill="#86efac" font-size="14" font-family="monospace">bug status: nervous</text>

  <!-- big ascii shrimp -->
  <text x="68" y="198" fill="#22c55e" font-size="17" font-family="monospace" filter="url(#softGlow)">
    <tspan x="68" dy="18"> ==&gt;  commit commit commit </tspan>
  </text>

  <!-- right side cute vector shrimp -->
  <g>
    <rect x="560" y="72" width="266" height="126" rx="12" fill="#07121b" stroke="#1f3a2b" stroke-width="2"/>
    <text x="578" y="92" fill="#22c55e" font-size="14" font-family="monospace">[live camera] shrimp.exe</text>

    <path d="M610 165 C591 149,588 121,606 101 C625 82,660 83,684 102 C709 121,711 156,689 173 C666 191,627 185,610 165Z" fill="#ec4899" stroke="#86efac" stroke-width="3"/>
    <ellipse cx="670" cy="134" rx="38" ry="30" fill="#fb7185" stroke="#86efac" stroke-width="3"/>
    <ellipse cx="650" cy="134" rx="11" ry="28" fill="#f472b6"/>
    <ellipse cx="670" cy="134" rx="10" ry="29" fill="#fb7185"/>
    <ellipse cx="688" cy="134" rx="8" ry="26" fill="#f472b6"/>
    <circle cx="723" cy="128" r="28" fill="#fb7185" stroke="#86efac" stroke-width="3"/>
    <circle cx="714" cy="124" r="4.5" fill="#111827"/>
    <circle cx="731" cy="124" r="4.5" fill="#111827"/>
    <path d="M716 139 Q723 145 730 139" fill="none" stroke="#7f1d1d" stroke-width="3.5" stroke-linecap="round"/>
    <path d="M744 102 C772 84,798 80,818 84" fill="none" stroke="#f9a8d4" stroke-width="3.5" stroke-linecap="round"/>
    <path d="M739 96 C763 64,803 57,835 64" fill="none" stroke="#fda4af" stroke-width="3" stroke-linecap="round"/>

    <!-- glasses -->
    <rect x="706" y="118" width="10" height="8" rx="2" fill="none" stroke="#22d3ee" stroke-width="2"/>
    <rect x="727" y="118" width="10" height="8" rx="2" fill="none" stroke="#22d3ee" stroke-width="2"/>
    <path d="M716 122 H727" stroke="#22d3ee" stroke-width="2"/>

    <!-- keyboard -->
    <rect x="626" y="172" width="76" height="14" rx="3" fill="#1f2937" stroke="#86efac" stroke-width="2"/>
    <g fill="#86efac">
      <rect x="633" y="176" width="6" height="4"/>
      <rect x="642" y="176" width="6" height="4"/>
      <rect x="651" y="176" width="6" height="4"/>
      <rect x="660" y="176" width="6" height="4"/>
      <rect x="669" y="176" width="6" height="4"/>
      <rect x="678" y="176" width="6" height="4"/>
    </g>
  </g>

  <text x="560" y="218" fill="#64748b" font-size="13" font-family="monospace">status: pretending to understand regex</text>
</svg>
